<svg width="39" height="29" viewBox="0 0 39 29" fill="none" xmlns="http://www.w3.org/2000/svg">
<rect width="39" height="29" fill="#F5F5F5"/>
<g id="home" clip-path="url(#clip0_0_1)">
<rect width="1600" height="5587" transform="translate(-914 -3780)" fill="white"/>
<g id="depoimento">
<rect id="bg" x="-914" y="-172" width="1600" height="680" fill="#FFBB00"/>
<g id="depoimento-text">
<path id="&#226;&#128;&#156;" d="M6.136 28.9139C5.096 28.9139 4.12533 28.7777 3.224 28.5053C2.392 28.2328 1.49067 27.6539 0.52 26.7684C0.173333 25.6105 0 24.3844 0 23.0903C0 18.6629 1.456 14.5081 4.368 10.6256C7.28 6.67507 11.1973 3.1332 16.12 0L18.2 2.96292C15.8427 4.80197 13.832 6.50479 12.168 8.07139C10.5733 9.63799 8.97867 11.6133 7.384 13.9972L9.256 16.5515C10.0187 17.6413 10.6427 18.6629 11.128 19.6165C11.6133 20.502 11.856 21.3875 11.856 22.2729C11.856 24.5207 11.2667 26.1894 10.088 27.2792C8.97867 28.369 7.66133 28.9139 6.136 28.9139ZM26.936 28.9139C25.896 28.9139 24.9253 28.7777 24.024 28.5053C23.192 28.2328 22.2907 27.6539 21.32 26.7684C20.9733 25.6105 20.8 24.3844 20.8 23.0903C20.8 18.6629 22.256 14.5081 25.168 10.6256C28.08 6.67507 31.9973 3.1332 36.92 0L39 2.96292C36.6427 4.80197 34.632 6.50479 32.968 8.07139C31.3733 9.63799 29.7787 11.6133 28.184 13.9972L30.056 16.5515C30.8187 17.6413 31.4427 18.6629 31.928 19.6165C32.4133 20.502 32.656 21.3875 32.656 22.2729C32.656 24.5207 32.0667 26.1894 30.888 27.2792C29.7787 28.369 28.4613 28.9139 26.936 28.9139Z" fill="#A66F00"/>
</g>
</g>
</g>
<defs>
<clipPath id="clip0_0_1">
<rect width="1600" height="5587" fill="white" transform="translate(-914 -3780)"/>
</clipPath>
</defs>
</svg>
