<svg width="39" height="30" viewBox="0 0 39 30" fill="none" xmlns="http://www.w3.org/2000/svg">
<path id="&#226;&#128;&#157;" d="M32.864 0.234375C33.904 0.234375 34.8747 0.370599 35.776 0.643047C36.6773 0.9155 37.5787 1.49446 38.48 2.37993C38.8267 3.53785 39 4.76389 39 6.05803C39 10.4854 37.544 14.6743 34.632 18.6249C31.72 22.5073 27.8027 26.0151 22.88 29.1483L20.8 26.1854C23.2267 24.3464 25.2373 22.6435 26.832 21.0769C28.4267 19.4422 30.0213 17.467 31.616 15.1511L29.744 12.5969C28.9813 11.5071 28.3573 10.5194 27.872 9.63396C27.3867 8.68038 27.144 7.76085 27.144 6.87539C27.144 4.62766 27.6987 2.95889 28.808 1.86908C29.9867 0.779278 31.3387 0.234375 32.864 0.234375ZM12.064 0.234375C13.104 0.234375 14.0747 0.370599 14.976 0.643047C15.8773 0.9155 16.7787 1.49446 17.68 2.37993C18.0267 3.53785 18.2 4.76389 18.2 6.05803C18.2 10.4854 16.744 14.6743 13.832 18.6249C10.92 22.5073 7.00267 26.0151 2.08 29.1483L0 26.1854C2.42667 24.3464 4.43733 22.6435 6.032 21.0769C7.62667 19.4422 9.22133 17.467 10.816 15.1511L8.944 12.5969C8.18133 11.5071 7.55733 10.5194 7.072 9.63396C6.58667 8.68038 6.344 7.76085 6.344 6.87539C6.344 4.62766 6.89867 2.95889 8.008 1.86908C9.18667 0.779278 10.5387 0.234375 12.064 0.234375Z" fill="#A66F00"/>
</svg>
